<svg xmlns="http://www.w3.org/2000/svg" width="23" height="23" viewBox="0 0 23 23">
  <g id="Group_2784" data-name="Group 2784" transform="translate(0 -1299)">
    <rect id="Rectangle_311" data-name="Rectangle 311" width="23" height="23" transform="translate(0 1299)" fill="rgba(255,255,255,0)"/>
    <path id="Subtraction_2" data-name="Subtraction 2" d="M8.5,16.5a8,8,0,1,1,8-8A8.009,8.009,0,0,1,8.5,16.5ZM6,6.824v6.061H7.83V9.552a2.1,2.1,0,0,0,1.683.777,2.818,2.818,0,0,0,2.674-3.106A2.846,2.846,0,0,0,9.524,4.117H6v.572A1.176,1.176,0,0,0,7.172,5.864H9.081a1.252,1.252,0,0,1,1.251,1.359A1.252,1.252,0,0,1,9.081,8.582,1.214,1.214,0,0,1,7.844,7.453a.719.719,0,0,0-.191-.414.7.7,0,0,0-.5-.215Z" transform="translate(2.5 1301.5)" fill="#707070" stroke="rgba(0,0,0,0)" stroke-width="1"/>
  </g>
</svg>
