<svg xmlns="http://www.w3.org/2000/svg" width="23" height="23" viewBox="0 0 23 23">
  <g id="Group_2784" data-name="Group 2784" transform="translate(0 -1299)">
    <rect id="Rectangle_311" data-name="Rectangle 311" width="23" height="23" transform="translate(0 1299)" fill="rgba(255,255,255,0)"/>
    <g id="Group_2789" data-name="Group 2789" transform="translate(-67.484 709.766)">
      <path id="Path_1186" data-name="Path 1186" d="M72.485,600.2v-6.32a.571.571,0,0,1,.647-.644H82.2a2.845,2.845,0,0,1,2.854,2.857q0,6.248,0,12.5a.572.572,0,0,1-.647.645q-4.535,0-9.07,0a2.846,2.846,0,0,1-2.853-2.858Q72.483,603.287,72.485,600.2Zm6.285-1.822h.375c.809,0,1.618,0,2.428,0a.572.572,0,0,0,.587-.763.593.593,0,0,0-.606-.379H75.985a1.042,1.042,0,0,0-.107,0,.566.566,0,0,0-.483.793.587.587,0,0,0,.591.348Zm0,2.286c-.94,0-1.88,0-2.821,0a.565.565,0,0,0-.553.806.6.6,0,0,0,.6.337q2.767,0,5.534,0a1.034,1.034,0,0,0,.125,0,.574.574,0,0,0,.495-.357.534.534,0,0,0-.088-.569.6.6,0,0,0-.506-.215Q80.166,600.664,78.774,600.663Zm.014,3.429h-.214c-.869,0-1.737,0-2.606,0a.573.573,0,0,0-.583.778.61.61,0,0,0,.618.364h5.533a1.2,1.2,0,0,0,.125,0,.572.572,0,0,0,.494-.777.6.6,0,0,0-.6-.363Z" fill="#707070" stroke="rgba(0,0,0,0)" stroke-width="1"/>
    </g>
  </g>
</svg>
