<svg xmlns="http://www.w3.org/2000/svg" width="223.48" height="256.999" viewBox="0 0 223.48 256.999">
  <g id="Group_3111" data-name="Group 3111" transform="translate(-1606.003 -1342.391)">
    <path id="Rectangle_372" data-name="Rectangle 372" d="M1638.988,1342.474l154.727,11.257a24.19,24.19,0,0,1,10.412,3.271,29.676,29.676,0,0,1,8.4,7.418,35.608,35.608,0,0,1,5.615,10.453,38.6,38.6,0,0,1,2.049,12.45V1553.3a38.607,38.607,0,0,1-2.049,12.45,35.615,35.615,0,0,1-5.615,10.453,29.672,29.672,0,0,1-8.4,7.417,24.191,24.191,0,0,1-10.412,3.272l-154.727,11.253a29.156,29.156,0,0,1-12.692-1.871,30.051,30.051,0,0,1-10.5-6.919,33.186,33.186,0,0,1-7.151-10.938,36.887,36.887,0,0,1-2.641-13.837V1376.046a36.857,36.857,0,0,1,2.636-13.841,33.152,33.152,0,0,1,7.151-10.938,30.048,30.048,0,0,1,10.5-6.919A29.152,29.152,0,0,1,1638.988,1342.474Z" transform="translate(0 0)" fill="#63a5ed"/>
    <g id="Group_3089" data-name="Group 3089" transform="translate(1615.294 1343.552)">
      <path id="Rectangle_313" data-name="Rectangle 313" d="M1650.011,1343.851l154.726,11.256a24.185,24.185,0,0,1,10.411,3.272,29.687,29.687,0,0,1,8.4,7.417,35.613,35.613,0,0,1,5.614,10.453,38.593,38.593,0,0,1,2.049,12.451v165.979a38.58,38.58,0,0,1-2.049,12.45,35.613,35.613,0,0,1-5.614,10.453,29.676,29.676,0,0,1-8.4,7.417,24.173,24.173,0,0,1-10.411,3.272l-154.726,11.253a29.143,29.143,0,0,1-12.693-1.87,30.065,30.065,0,0,1-10.5-6.919,33.192,33.192,0,0,1-7.151-10.939,36.884,36.884,0,0,1-2.641-13.837V1377.423a36.862,36.862,0,0,1,2.637-13.842,33.18,33.18,0,0,1,7.151-10.938,30.049,30.049,0,0,1,10.5-6.919A29.156,29.156,0,0,1,1650.011,1343.851Z" transform="translate(-1617.026 -1343.768)" fill="#121744"/>
      <g id="Group_2764" data-name="Group 2764" transform="translate(76.163 59.659)">
        <path id="Path_1234" data-name="Path 1234" d="M1724.224,1459.437l-16.841-.232v99.949l26.621-1.185v-54.107a35,35,0,0,0,4.569,5.077A27.982,27.982,0,0,0,1744,1512.8a25.834,25.834,0,0,0,6.36,2.439,29.085,29.085,0,0,0,7.352.756,31.1,31.1,0,0,0,14.53-3.9,36.3,36.3,0,0,0,11.507-10.256,49.863,49.863,0,0,0,7.579-15.492,72.341,72.341,0,0,0-.038-39.559,51.145,51.145,0,0,0-7.633-15.637,37.553,37.553,0,0,0-11.477-10.441,31.081,31.081,0,0,0-14.318-4.157l-33.475-1.333-17.008-.677v9.435a21.65,21.65,0,0,0,1.361,7.585,20.405,20.405,0,0,0,3.7,6.252,17.881,17.881,0,0,0,5.459,4.272,15.6,15.6,0,0,0,6.638,1.666l27.158.625a15.994,15.994,0,0,1,6.91,1.712,16.767,16.767,0,0,1,5.488,4.506,21.31,21.31,0,0,1,3.621,6.892,29.23,29.23,0,0,1,1.307,8.894,28.915,28.915,0,0,1-1.329,8.943,20.659,20.659,0,0,1-3.656,6.814,16.3,16.3,0,0,1-5.5,4.356,16.2,16.2,0,0,1-18.489-3.315,19.473,19.473,0,0,1-3.839-5.759,26.143,26.143,0,0,1-2-7.644,15.088,15.088,0,0,0-.33-1.859,13.578,13.578,0,0,0-.562-1.77,12.074,12.074,0,0,0-.8-1.645,10.753,10.753,0,0,0-1.045-1.482h0a10.665,10.665,0,0,0-1.543-1.51,9.932,9.932,0,0,0-1.761-1.119,9.332,9.332,0,0,0-1.923-.705A9.06,9.06,0,0,0,1724.224,1459.437Z" transform="translate(-1707.383 -1414.546)" fill="#fff"/>
      </g>
    </g>
  </g>
</svg>
