<svg xmlns="http://www.w3.org/2000/svg" width="23.929" height="23" viewBox="0 0 23.929 23">
  <g id="Group_2784" data-name="Group 2784" transform="translate(0 -1299)">
    <rect id="Rectangle_311" data-name="Rectangle 311" width="23" height="23" transform="translate(0 1299)" fill="rgba(255,255,255,0)"/>
    <g id="Group_2788" data-name="Group 2788" transform="translate(-1352.428 900.063)">
      <path id="Path_842" data-name="Path 842" d="M5.143-20.563A5.143,5.143,0,0,1,0-25.705a5.145,5.145,0,0,1,3.436-4.854q-.007-.145-.007-.289a5.713,5.713,0,0,1,5.714-5.714A5.713,5.713,0,0,1,14.1-33.7a3.176,3.176,0,0,1,1.9-.579,3.409,3.409,0,0,1,3.429,3.429,3.467,3.467,0,0,1-.229,1.236,4.571,4.571,0,0,1,3.657,4.479,4.571,4.571,0,0,1-4.571,4.571H5.143ZM10.821-23.7A.776.776,0,0,0,12-23.7l.824-.824,2.033-2.033a.776.776,0,0,0,0-1.182.826.826,0,0,0-1.182,0l-.57.571-.823.825v-4.789a.855.855,0,0,0-.857-.857.855.855,0,0,0-.857.857v4.789l-1.425-1.4a.826.826,0,0,0-1.182,0,.826.826,0,0,0,0,1.182Z" transform="translate(1353 439)" fill="#707070" stroke="rgba(0,0,0,0)" stroke-width="1"/>
    </g>
  </g>
</svg>
