<svg xmlns="http://www.w3.org/2000/svg" width="21.56" height="17.389" viewBox="0 0 21.56 17.389">
  <path id="Path_1193" data-name="Path 1193" d="M19.675-4.951a4.918,4.918,0,0,0,0-6.957,4.918,4.918,0,0,0-6.338-.524l-.054.037a1.086,1.086,0,0,0-.252,1.517,1.089,1.089,0,0,0,1.517.252l.054-.037a2.738,2.738,0,0,1,3.531.293,2.741,2.741,0,0,1,0,3.878L14.317-2.668a2.741,2.741,0,0,1-3.878,0A2.739,2.739,0,0,1,10.146-6.2l.037-.054a1.088,1.088,0,0,0-.252-1.517,1.092,1.092,0,0,0-1.517.252l-.037.054A4.91,4.91,0,0,0,8.9-1.13a4.918,4.918,0,0,0,6.957,0ZM2-5.747A4.918,4.918,0,0,0,2,1.21a4.918,4.918,0,0,0,6.338.524L8.391,1.7A1.088,1.088,0,0,0,7.125-.072l-.054.037A2.738,2.738,0,0,1,3.54-.327a2.745,2.745,0,0,1,0-3.882l3.817-3.82a2.741,2.741,0,0,1,3.878,0,2.743,2.743,0,0,1,.293,3.535l-.037.054a1.088,1.088,0,0,0,.252,1.517,1.092,1.092,0,0,0,1.517-.252l.037-.054a4.914,4.914,0,0,0-.521-6.338,4.918,4.918,0,0,0-6.957,0Z" transform="translate(-0.057 14.043)" fill="#707070" stroke="rgba(0,0,0,0)" stroke-width="1"/>
</svg>
