<svg xmlns="http://www.w3.org/2000/svg" width="23" height="23" viewBox="0 0 23 23">
  <g id="Group_2784" data-name="Group 2784" transform="translate(0 -1299)">
    <rect id="Rectangle_311" data-name="Rectangle 311" width="23" height="23" transform="translate(0 1299)" fill="rgba(255,255,255,0)"/>
    <path id="Path_1235" data-name="Path 1235" d="M15.658-9.51,12-13.169A2.32,2.32,0,0,0,9.33-13.6L6-16.935v-1.941l-4-3-2,2,3,4H4.939l3.331,3.331A2.325,2.325,0,0,0,8.7-9.876l3.659,3.659a1.162,1.162,0,0,0,1.647,0l1.647-1.647A1.167,1.167,0,0,0,15.658-9.51Zm-5.293-5.334a3.288,3.288,0,0,1,2.34.969l.606.606a4.423,4.423,0,0,0,1.369-.922,4.494,4.494,0,0,0,1.184-4.272.374.374,0,0,0-.628-.172L12.911-16.31l-2.122-.353-.353-2.122,2.325-2.325a.377.377,0,0,0-.178-.631,4.5,4.5,0,0,0-4.269,1.184,4.428,4.428,0,0,0-1.287,3.237l2.565,2.566A3.4,3.4,0,0,1,10.364-14.844ZM7.117-12.282,5.346-14.054.583-9.288a2,2,0,0,0,0,2.828,2,2,0,0,0,2.828,0l3.862-3.862A3.356,3.356,0,0,1,7.117-12.282ZM2-7.126a.752.752,0,0,1-.75-.75A.748.748,0,0,1,2-8.626a.748.748,0,0,1,.75.75A.75.75,0,0,1,2-7.126Z" transform="translate(4.002 1323.875)" fill="#707070" stroke="rgba(0,0,0,0)" stroke-width="1"/>
  </g>
</svg>
